Once Upon A Time In The West (1968)

Director: Sergio Leone

"There were three men in her life. One to take her... one to love her - and one to kill her."

She is Jill McBain, an ex-New Orleans prostitute who has secretly married Brett McBain in a bid to become a respectable woman. They are the mysterious stranger Harmonica, the notorious yet sympathetic outlaw Cheyenne and the ruthless killer Frank, who has just murdered Brett McBain and his brood for standing in the way of Morton's trans-American railroad.

Not just the best Spaghetti western nor one of the greatest westerns but also one of the greatest films period, Sergio Leone's masterpiece Once Upon a Time in the West is a complex, multi-faceted film that remains as enjoyable on the tenth viewing as the first one.

The script, co-written by Dario Argento, Bernardo Bertolucci and Leone, can be appreciated as a deconstruction of the mythology of the west and the western in which Manifest Destiny, the coming of the railroad and the transformation of the desert into a garden mean the götterdämmerunggotterdammerung for superhuman figures like Frank, Cheyenne and Harmonica and the emergence of a new tamed, civilised and above all feminised world, as represented by Jill.

The direction can be taken as an essay in film form, Leone combining his earlier Dollars experiments in time and space with the idea of a composed film, developing his mise-en-scene around Ennio Morricone's pre-existing scratch score.

Just as remarkable as Leone's success in this regard is that of Morricone. While he always seems to find a way to make the music fit the action, it's rare that a score can stand in its own regard as well as this one does. A near literal horse opera, it presents each character with their own distinctive leitmotif - the lush strings and soaring vocals of Edda Dell'Orso for Jill, Allessando Allessandroni's whining electric guitar for Frank and so on - to be combined and counterpointed with one another as the epic tale moves towards its denouement.

Add in perfectly pitched performances from the leads - Henry Fonda chillingly cast against type, Charles Bronson seemingly born to incarnate Harmonica - a fine ensemble cast of reliable supporting players like Woody Strode and Lionel Stander, John Ford's beloved Monument Valley locations, and the only thing one can really say is missing is the presence of Clint Eastwood, Lee Van Cleef and Eli Wallach as Frank's gunmen at the start (Leone had wanted them to say goodbye to the Dollars films but, alas, Eastwood was unwilling to participate.)

Unlike Frank, you don't have to wait "until the moment of dying" to know: Once Upon a Time in the West is a vital, must-see film. 

Media Info:
General
Complete name                    : J:\Seeding\Once Upon A Time In The West(1968)[DVDRip][big_dad_e™]\Once Upon A Time In The West(1968)[DVDRip][big_dad_e™].AVI
Format                           : AVI
Format/Info                      : Audio Video Interleave
File size                        : 2.12 GiB
Duration                         : 2h 45mn
Overall bit rate                 : 1 833 Kbps

Video
ID                               : 0
Format                           : MPEG-4 Visual
Format profile                   : Simple@L3
Format settings, BVOP            : No
Format settings, QPel            : No
Format settings, GMC             : No warppoints
Format settings, Matrix          : Default (H.263)
Codec ID                         : XVID
Codec ID/Hint                    : XviD
Duration                         : 2h 45mn
Bit rate                         : 1 500 Kbps
Width                            : 720 pixels
Height                           : 368 pixels
Display aspect ratio             : 2.35:1
Frame rate                       : 23.976 fps
Color space                      : YUV
Chroma subsampling               : 4:2:0
Bit depth                        : 8 bits
Scan type                        : Progressive
Bits/(Pixel*Frame)               : 0.236
Stream size                      : 1.73 GiB (82%)
Writing library                  : XviD 

Audio
ID                               : 1
Format                           : MPEG Audio
Format version                   : Version 1
Format profile                   : Layer 3
Mode                             : Joint stereo
Mode extension                   : MS Stereo
Codec ID                         : 55
Codec ID/Hint                    : MP3
Duration                         : 2h 45mn
Bit rate mode                    : Constant
Bit rate                         : 320 Kbps
Channel(s)                       : 2 channels
Sampling rate                    : 48.0 KHz
Stream size                      : 378 MiB (17%)
Alignment                        : Split accross interleaves
Interleave, duration             : 24 ms (0.58 video frame)
Interleave, preload duration     : 383 ms
Writing library                  : LAME3.98

File Scan:
Malwarebytes' Anti-Malware 1.50.1.1100
www.malwarebytes.org

Database version: 5898
2/27/2011 6:46:05 PM
mbam-log-2011-02-27 (18-46-05).txt

Scan type: Quick scan
Objects scanned: 5
Time elapsed: 14 second(s)

Memory Processes Infected: 0
Memory Modules Infected: 0
Registry Keys Infected: 0
Registry Values Infected: 0
Registry Data Items Infected: 0
Folders Infected: 0
Files Infected: 0

Memory Processes Infected:
(No malicious items detected)

Memory Modules Infected:
(No malicious items detected)

Registry Keys Infected:
(No malicious items detected)

Registry Values Infected:
(No malicious items detected)

Registry Data Items Infected:
(No malicious items detected)

Folders Infected:
(No malicious items detected)

Files Infected:
(No malicious items detected)

When using TPB please read these important notes:
  
01- Anti-malware apps may warn about keygens, patches, cracks, etc., because of 
    their capabilities, (generating codes, etc.). Sometimes they're added to 
    the virus/spyware database and will be detected as malware. If you don't trust
    the keygens, patches, cracks, etc., don't use them. 
    
02- Before running .exe-files, keygens, patches, cracks, etc., always check first 
    if they can be unpacked. Often some third party added a virus to the 
    original file, repacked it and uploaded it again.

03- Letting anti-malware apps send scan results to their companies can cause
    keygens, patches, cracks, etc., to be added to their virus-database.

04- Firewalls which are set to automatically determine connections will allow 
    apps & malware!. Avoid this by manually configuring your firewall.

05- Usually (new) torrents with many downloads and seeders in a brief period is
    suspicious! Torrents with the Skull & Crossbones icon are trusted.

06- Some people use multiple accounts and post fake comments 
    and/or files trying to spread confusion. They seldom seriously
    comment or have any torrents, or a just a few to look passable.

07- Clicking on unknown links can cause malware to be installed on your machine.
  
08- In general often there are more fake and negative comments than reliable and
    positive comments.

09- In some countries uploading/downloading copyright protected material is 
    forbidden, but showing some appreciation to reliable up-loaders is not.

10- Posting fake and negative comments or fake/infected uploads on TPB can result
    in getting banned from TPB!

Requests?  Find me on SuprBay. http://forum.suprbay.org
 

For reporting bad or suspicious torrents:  
http://forum.suprbay.org/forumdisplay.php?fid=29

For more of my torrents: 
https://thepiratebay.org/user/big_dad_e/  (Secured)

All torrents scanned with:
Norton Anti-virus
Malwarebytes' Anti-malware
 
http://www.pirate-party.us/

ALWAYS SEED & THANKS SEEDERS!